<svg width="42" height="42" viewBox="0 0 42 42" fill="none" xmlns="http://www.w3.org/2000/svg">
<path fill-rule="evenodd" clip-rule="evenodd" d="M21 39.9048C31.4408 39.9048 39.9048 31.4408 39.9048 21C39.9048 10.5592 31.4408 2.09524 21 2.09524C10.5592 2.09524 2.09524 10.5592 2.09524 21C2.09524 31.4408 10.5592 39.9048 21 39.9048ZM21 42C32.598 42 42 32.598 42 21C42 9.40202 32.598 0 21 0C9.40202 0 0 9.40202 0 21C0 32.598 9.40202 42 21 42Z" fill="white"/>
<path fill-rule="evenodd" clip-rule="evenodd" d="M12.4444 23.8413C13.023 23.8413 13.492 24.3103 13.492 24.8889C13.492 28.5583 16.6306 31.619 20.6111 31.619C24.5916 31.619 27.7301 28.5583 27.7301 24.8889C27.7301 24.3103 28.1992 23.8413 28.7778 23.8413C29.3563 23.8413 29.8254 24.3103 29.8254 24.8889C29.8254 29.8106 25.6512 33.7143 20.6111 33.7143C15.5709 33.7143 11.3968 29.8106 11.3968 24.8889C11.3968 24.3103 11.8658 23.8413 12.4444 23.8413Z" fill="white"/>
<path d="M15.5555 15.9444C15.5555 17.4479 14.3368 18.6667 12.8333 18.6667C11.3299 18.6667 10.1111 17.4479 10.1111 15.9444C10.1111 14.441 11.3299 13.2222 12.8333 13.2222C14.3368 13.2222 15.5555 14.441 15.5555 15.9444Z" fill="white"/>
<path d="M31.1111 15.9444C31.1111 17.4479 29.8923 18.6667 28.3889 18.6667C26.8854 18.6667 25.6667 17.4479 25.6667 15.9444C25.6667 14.441 26.8854 13.2222 28.3889 13.2222C29.8923 13.2222 31.1111 14.441 31.1111 15.9444Z" fill="white"/>
</svg>
