<svg width="41" height="41" viewBox="0 0 41 41" fill="none" xmlns="http://www.w3.org/2000/svg">
<path fill-rule="evenodd" clip-rule="evenodd" d="M20.0455 38.0909C30.0117 38.0909 38.0909 30.0117 38.0909 20.0455C38.0909 10.0792 30.0117 2 20.0455 2C10.0792 2 2 10.0792 2 20.0455C2 30.0117 10.0792 38.0909 20.0455 38.0909ZM20.0455 40.0909C31.1163 40.0909 40.0909 31.1163 40.0909 20.0455C40.0909 8.97466 31.1163 0 20.0455 0C8.97466 0 0 8.97466 0 20.0455C0 31.1163 8.97466 40.0909 20.0455 40.0909Z" fill="white"/>
<path fill-rule="evenodd" clip-rule="evenodd" d="M11.8788 22.7576C12.4311 22.7576 12.8788 23.2053 12.8788 23.7576C12.8788 27.2602 15.8747 30.1818 19.6742 30.1818C23.4738 30.1818 26.4697 27.2602 26.4697 23.7576C26.4697 23.2053 26.9174 22.7576 27.4697 22.7576C28.022 22.7576 28.4697 23.2053 28.4697 23.7576C28.4697 28.4556 24.4853 32.1818 19.6742 32.1818C14.8632 32.1818 10.8788 28.4556 10.8788 23.7576C10.8788 23.2053 11.3265 22.7576 11.8788 22.7576Z" fill="white"/>
<path d="M14.8485 15.2197C14.8485 16.6548 13.6851 17.8182 12.25 17.8182C10.8149 17.8182 9.6515 16.6548 9.6515 15.2197C9.6515 13.7846 10.8149 12.6212 12.25 12.6212C13.6851 12.6212 14.8485 13.7846 14.8485 15.2197Z" fill="white"/>
<path d="M29.697 15.2197C29.697 16.6548 28.5336 17.8182 27.0985 17.8182C25.6634 17.8182 24.5 16.6548 24.5 15.2197C24.5 13.7846 25.6634 12.6212 27.0985 12.6212C28.5336 12.6212 29.697 13.7846 29.697 15.2197Z" fill="white"/>
</svg>
