<svg width="41" height="41" viewBox="0 0 41 41" fill="none" xmlns="http://www.w3.org/2000/svg">
<path d="M13.5303 28C13.5303 24.5 18.4091 24 20.9546 24C23.5 24 28.3788 24.5 28.3788 28" stroke="white" stroke-width="2" stroke-linecap="round"/>
<path d="M23.4242 14.5C24.4242 13 26.9242 10.5 28.8484 10" stroke="white" stroke-width="2" stroke-linecap="round"/>
<path d="M18.4242 14.5C17.4242 13 14.9242 10.5 13 10" stroke="white" stroke-width="2" stroke-linecap="round"/>
<circle cx="20.9545" cy="20.0455" r="19.0455" stroke="white" stroke-width="2"/>
<path d="M29.4821 13.6575C30.4415 14.7246 30.3545 16.3675 29.2874 17.3271C28.2204 18.2867 26.5774 18.1996 25.6178 17.1325C25.049 16.5 25.632 15.3187 26.7344 14.4881C27.8367 13.6575 29.1279 13.2635 29.4821 13.6575Z" fill="white"/>
<path d="M11.7376 13.6575C10.7781 14.7246 10.8651 16.3675 11.9322 17.3271C12.9993 18.2867 14.6422 18.1996 15.6018 17.1325C16.1706 16.5 15.5876 15.3187 14.4852 14.4881C13.3829 13.6575 12.0917 13.2635 11.7376 13.6575Z" fill="white"/>
</svg>
