<svg width="330" height="237" viewBox="0 0 330 237" fill="none" xmlns="http://www.w3.org/2000/svg">
<path d="M129.406 0L104.188 102.84C87.3128 107.799 70.7859 114.29 54.8232 122.312L129.406 0Z" fill="white"/>
<path d="M78.3815 157.382C82.9415 155.391 87.5439 153.531 92.183 151.8C104.549 147.188 117.177 143.5 129.961 140.735C131.649 140.37 133.34 140.021 135.034 139.689C171.691 132.485 209.516 132.834 246.06 140.735C259.017 143.537 271.814 147.288 284.34 151.989C293.076 155.267 301.681 159.007 310.117 163.208L329.494 141.739C312.491 131.967 294.703 124.101 276.437 118.141L276.472 118.282C219.391 99.5541 157.608 99.4532 100.476 117.979C86.4963 122.512 72.7947 128.161 59.5087 134.925L78.3815 157.382Z" fill="white"/>
<path d="M300.918 173.401L246.972 233.172L279.319 164.385L279.656 164.511L279.716 164.385C286.883 167.063 293.958 170.069 300.918 173.401Z" fill="white"/>
<path fill-rule="evenodd" clip-rule="evenodd" d="M188.01 236.616C224.187 236.616 253.514 207.289 253.514 171.112C253.514 165.834 252.89 160.701 251.711 155.784C209.93 145.277 166.09 145.277 124.31 155.784C123.131 160.701 122.506 165.834 122.506 171.112C122.506 207.289 151.833 236.616 188.01 236.616ZM208.062 171.112C208.062 182.187 199.085 191.164 188.01 191.164C176.936 191.164 167.958 182.187 167.958 171.112C167.958 160.038 176.936 151.06 188.01 151.06C199.085 151.06 208.062 160.038 208.062 171.112Z" fill="white"/>
<path d="M321.857 122.644C305.845 114.548 289.262 107.995 272.324 102.985L247.072 0.000122182L247.735 1.08843L247.468 0L322.253 122.644L322.019 122.526L321.68 122.355L321.857 122.644Z" fill="white"/>
<path d="M35.8418 138.711L0 192.378L12.0312 206.414L72.0087 179.469L76.8563 170.2L45.6213 135L35.8418 138.711Z" fill="white"/>
<path d="M190.141 62L207 95H174L190.141 62Z" fill="white"/>
<path d="M243.944 66.9736L254.435 102.515L222 96.4352L243.944 66.9736Z" fill="white"/>
<path d="M136.57 66.9736L126.079 102.515L158.514 96.4352L136.57 66.9736Z" fill="white"/>
</svg>
