<svg width="43" height="42" viewBox="0 0 43 42" fill="none" xmlns="http://www.w3.org/2000/svg">
<path d="M14 29C18.5 24.5 25.5 24.5 30 29" stroke="white" stroke-width="2" stroke-linecap="round"/>
<path d="M24.746 15.1905C25.6678 13.5238 27.9723 10.746 29.746 10.1905" stroke="white" stroke-width="2" stroke-linecap="round"/>
<path d="M19 15.1905C18.0782 13.5238 15.7737 10.746 14 10.1905" stroke="white" stroke-width="2" stroke-linecap="round"/>
<circle cx="21.9091" cy="21" r="20" stroke="white" stroke-width="2"/>
<path d="M31.0753 14.6005C32.0758 15.7133 32.0548 17.3637 31.0282 18.2869C30.0016 19.2101 28.3581 19.0565 27.3575 17.9438C26.7644 17.2843 27.2989 16.1185 28.366 15.3265C29.433 14.5345 30.706 14.1897 31.0753 14.6005Z" fill="white"/>
<path d="M12.4193 14.6005C11.4188 15.7133 11.4398 17.3637 12.4664 18.2869C13.4931 19.2101 15.1365 19.0565 16.1371 17.9438C16.7303 17.2843 16.1957 16.1185 15.1286 15.3265C14.0616 14.5345 12.7887 14.1897 12.4193 14.6005Z" fill="white"/>
</svg>
