<svg width="42" height="42" viewBox="0 0 42 42" fill="none" xmlns="http://www.w3.org/2000/svg">
<circle cx="21" cy="21" r="20" stroke="white" stroke-width="2"/>
<path d="M14.083 24C15.2141 32 24.7142 32 27.2141 27.5" stroke="white" stroke-width="2" stroke-linecap="round"/>
<path d="M30.5807 14.6005C31.5812 15.7133 31.5602 17.3637 30.5336 18.2869C29.5069 19.2101 27.8635 19.0565 26.8629 17.9438C26.2697 17.2843 26.8043 16.1185 27.8714 15.3265C28.9384 14.5345 30.2113 14.1897 30.5807 14.6005Z" fill="white"/>
<path d="M11.1548 14.6005C10.1543 15.7133 10.1753 17.3637 11.2019 18.2869C12.2285 19.2101 13.872 19.0565 14.8726 17.9438C15.4657 17.2843 14.9312 16.1185 13.8641 15.3265C12.7971 14.5345 11.5241 14.1897 11.1548 14.6005Z" fill="white"/>
</svg>
