<svg width="897" height="241" viewBox="0 0 897 241" fill="none" xmlns="http://www.w3.org/2000/svg">
<path d="M345.239 174C342.812 174 340.862 173.35 339.389 172.05C338.002 170.663 337.309 168.843 337.309 166.59C337.309 164.51 337.829 162.82 338.869 161.52L396.849 93.14L395.679 92.23L390.739 97.82H352.779C348.705 97.82 345.585 96.5633 343.419 94.05C341.339 91.5367 340.299 87.8533 340.299 83H409.589C412.189 83 414.139 83.65 415.439 84.95C416.825 86.1633 417.519 87.9833 417.519 90.41C417.519 92.49 416.999 94.18 415.959 95.48L358.499 163.73L359.669 164.77L364.609 159.18H405.559C409.545 159.18 412.579 160.437 414.659 162.95C416.825 165.463 417.909 169.147 417.909 174H345.239ZM453.056 175.17C447.683 175.17 442.786 174.13 438.366 172.05C433.946 169.883 430.436 166.98 427.836 163.34C425.236 159.613 423.936 155.453 423.936 150.86V133.57C423.936 128.717 425.28 124.34 427.966 120.44C430.653 116.54 434.206 113.463 438.626 111.21C443.133 108.957 447.986 107.83 453.186 107.83C458.3 107.83 462.98 108.913 467.226 111.08C471.56 113.16 474.983 116.107 477.496 119.92C480.01 123.647 481.266 127.937 481.266 132.79V140.07C481.266 141.977 480.53 143.58 479.056 144.88C477.67 146.18 475.893 146.83 473.726 146.83H439.666V149.69C439.666 153.417 440.793 156.45 443.046 158.79C445.3 161.13 448.68 162.3 453.186 162.3C457.52 162.3 460.726 161.347 462.806 159.44C464.973 157.533 466.056 155.063 466.056 152.03C467.616 151.857 468.7 151.77 469.306 151.77C472.513 151.77 475.026 152.507 476.846 153.98C478.666 155.367 479.576 157.36 479.576 159.96C479.576 162.473 478.406 164.9 476.066 167.24C473.726 169.58 470.52 171.487 466.446 172.96C462.373 174.433 457.91 175.17 453.056 175.17ZM466.576 135.26V132.79C466.576 129.15 465.32 126.203 462.806 123.95C460.293 121.697 457.043 120.57 453.056 120.57C449.07 120.57 445.82 121.697 443.306 123.95C440.88 126.117 439.666 129.063 439.666 132.79V135.26H466.576ZM515.099 175.17C507.906 175.17 502.446 173.133 498.719 169.06C495.079 164.9 493.259 159.657 493.259 153.33V91.71C493.259 88.1567 494.559 85.6433 497.159 84.17C499.846 82.61 503.962 81.83 509.509 81.83V152.68C509.509 155.627 510.159 157.793 511.459 159.18C512.759 160.48 514.839 161.13 517.699 161.13C520.906 161.13 524.112 160.307 527.319 158.66C528.186 159.44 528.836 160.437 529.269 161.65C529.789 162.777 530.049 163.947 530.049 165.16C530.049 167.76 528.749 170.1 526.149 172.18C523.549 174.173 519.866 175.17 515.099 175.17ZM574.775 94.96C574.775 90.7133 576.292 87.4633 579.325 85.21C582.358 82.9567 586.648 81.83 592.195 81.83V123.56L635.745 81.83C637.912 83.39 639.645 85.1667 640.945 87.16C642.332 89.0667 643.025 90.7567 643.025 92.23C643.025 93.53 642.548 94.83 641.595 96.13C640.728 97.3433 639.385 98.8167 637.565 100.55L611.565 125.12L647.315 169.71C644.628 173.35 641.118 175.17 636.785 175.17C632.625 175.17 629.288 173.61 626.775 170.49L599.605 136.04L592.195 143.32V162.82C592.195 167.067 590.808 170.187 588.035 172.18C585.262 174.173 580.842 175.17 574.775 175.17V94.96ZM676.97 175.17C672.55 175.17 668.477 174.303 664.75 172.57C661.11 170.837 658.164 168.367 655.91 165.16C653.744 161.867 652.66 157.967 652.66 153.46C652.66 148.953 653.83 145.053 656.17 141.76C658.51 138.38 661.674 135.823 665.66 134.09C669.734 132.27 674.197 131.36 679.05 131.36C683.037 131.36 686.59 132.01 689.71 133.31C692.917 134.523 695.864 136.387 698.55 138.9L699.2 138.25C698.42 137.47 697.077 136.3 695.17 134.74V132.14C695.17 128.587 693.914 125.77 691.4 123.69C688.887 121.61 685.377 120.57 680.87 120.57C672.81 120.57 666.874 123.517 663.06 129.41C661.154 128.803 659.55 127.85 658.25 126.55C656.95 125.163 656.3 123.69 656.3 122.13C656.3 119.53 657.47 117.147 659.81 114.98C662.15 112.813 665.314 111.08 669.3 109.78C673.287 108.48 677.62 107.83 682.3 107.83C691.487 107.83 698.594 109.997 703.62 114.33C708.647 118.577 711.16 124.383 711.16 131.75V164.25C711.16 168.063 709.947 170.837 707.52 172.57C705.094 174.303 701.28 175.17 696.08 175.17V169.84C697.554 168.367 698.55 167.283 699.07 166.59L698.55 165.94C695.69 168.973 692.614 171.27 689.32 172.83C686.114 174.39 681.997 175.17 676.97 175.17ZM681.13 163.34C685.637 163.34 689.147 162.473 691.66 160.74C694.174 159.007 695.43 156.537 695.43 153.33C695.43 150.21 694.13 147.74 691.53 145.92C689.017 144.1 685.594 143.19 681.26 143.19C677.274 143.19 674.11 144.1 671.77 145.92C669.517 147.653 668.39 150.123 668.39 153.33C668.39 156.623 669.517 159.137 671.77 160.87C674.024 162.517 677.144 163.34 681.13 163.34ZM725.722 120.31C725.722 116.323 726.979 113.247 729.492 111.08C732.092 108.913 735.992 107.83 741.192 107.83V115.63C740.152 116.843 739.112 118.23 738.072 119.79L738.852 120.31C741.452 116.41 744.789 113.377 748.862 111.21C752.936 108.957 757.442 107.83 762.382 107.83C766.802 107.83 770.702 108.827 774.082 110.82C777.462 112.813 780.062 115.543 781.882 119.01C783.789 122.477 784.742 126.377 784.742 130.71V165.29C784.742 168.757 783.399 171.27 780.712 172.83C778.026 174.39 773.952 175.17 768.492 175.17V133.05C768.492 129.757 767.496 127.07 765.502 124.99C763.596 122.91 760.779 121.87 757.052 121.87C752.632 121.87 748.992 123.257 746.132 126.03C743.272 128.717 741.842 132.097 741.842 136.17V165.29C741.842 168.757 740.542 171.27 737.942 172.83C735.342 174.39 731.269 175.17 725.722 175.17V120.31ZM810.018 101.72C806.898 101.72 804.298 100.81 802.218 98.99C800.225 97.0833 799.228 94.6567 799.228 91.71C799.228 88.85 800.225 86.51 802.218 84.69C804.298 82.7833 806.898 81.83 810.018 81.83C813.138 81.83 815.695 82.7833 817.688 84.69C819.768 86.51 820.808 88.85 820.808 91.71C820.808 94.6567 819.768 97.0833 817.688 98.99C815.695 100.81 813.138 101.72 810.018 101.72ZM801.828 117.71C801.828 114.157 803.171 111.643 805.858 110.17C808.545 108.61 812.618 107.83 818.078 107.83V165.29C818.078 168.757 816.735 171.27 814.048 172.83C811.361 174.39 807.288 175.17 801.828 175.17V117.71ZM862.561 175.17C854.241 175.17 847.525 173.697 842.411 170.75C837.385 167.717 834.828 163.687 834.741 158.66C834.741 156.493 835.608 154.673 837.341 153.2C839.161 151.727 842.021 150.947 845.921 150.86C846.701 154.673 848.521 157.62 851.381 159.7C854.241 161.693 857.708 162.69 861.781 162.69C866.201 162.69 869.668 162.127 872.181 161C874.695 159.873 875.951 158.183 875.951 155.93C875.951 153.85 874.911 152.117 872.831 150.73C870.838 149.343 866.851 147.957 860.871 146.57C854.371 145.01 849.301 143.45 845.661 141.89C842.108 140.33 839.465 138.337 837.731 135.91C835.998 133.483 835.131 130.277 835.131 126.29C835.131 120.743 837.471 116.28 842.151 112.9C846.831 109.52 853.245 107.83 861.391 107.83C869.278 107.83 875.821 109.26 881.021 112.12C886.221 114.893 888.821 118.62 888.821 123.3C888.821 125.64 887.955 127.373 886.221 128.5C884.488 129.627 881.628 130.233 877.641 130.32C876.775 126.853 875.128 124.253 872.701 122.52C870.275 120.787 866.851 119.92 862.431 119.92C859.138 119.92 856.278 120.483 853.851 121.61C851.511 122.737 850.341 124.21 850.341 126.03C850.341 127.937 851.338 129.41 853.331 130.45C855.325 131.49 858.791 132.53 863.731 133.57C873.438 135.65 880.458 138.423 884.791 141.89C889.211 145.357 891.421 150.08 891.421 156.06C891.421 161.867 888.821 166.503 883.621 169.97C878.508 173.437 871.488 175.17 862.561 175.17Z" fill="white"/>
<path d="M341.473 189.784L337.681 191.32C338.977 193.192 340.465 196.024 341.425 197.992L345.265 196.36C344.401 194.584 342.673 191.512 341.473 189.784ZM347.137 187.624L343.345 189.16C344.689 190.984 346.225 193.768 347.233 195.784L351.025 194.152C350.161 192.472 348.433 189.4 347.137 187.624ZM317.185 223.528C317.185 229.24 318.769 231.88 329.713 231.88C334.897 231.88 340.609 231.4 344.593 230.824L344.785 224.296C340.033 225.256 334.705 225.88 329.665 225.88C324.385 225.88 323.569 224.872 323.569 221.848C323.569 216.52 323.569 203.368 323.569 197.56C323.569 195.928 323.761 193.48 323.953 192.04H316.801C317.041 193.48 317.185 195.928 317.185 197.56C317.185 203.416 317.185 219.592 317.185 223.528ZM347.425 202.456L342.817 198.856C341.905 199.384 340.753 199.672 339.409 200.008C335.041 201.064 312.433 205.48 305.953 206.248L307.105 212.584C313.153 211.192 335.377 206.824 338.305 206.2C336.961 208.696 333.793 213.112 330.625 215.944L335.905 219.064C339.361 215.656 343.729 209.08 345.841 205.048C346.273 204.232 346.993 203.128 347.425 202.456ZM376.465 227.944L380.497 231.256C380.977 230.92 381.553 230.392 382.561 229.864C387.985 227.128 394.849 221.944 398.833 216.76L395.185 211.432C391.921 216.088 387.217 219.88 383.281 221.56C383.281 218.632 383.281 200.344 383.281 196.504C383.281 194.344 383.617 192.424 383.617 192.328H376.513C376.513 192.424 376.849 194.296 376.849 196.456C376.849 200.344 376.849 221.896 376.849 224.44C376.849 225.736 376.705 227.032 376.465 227.944ZM354.241 227.272L360.097 231.16C364.225 227.512 367.201 222.76 368.689 217.384C369.937 212.536 370.081 202.408 370.081 196.696C370.081 194.728 370.417 192.568 370.417 192.376H363.361C363.649 193.576 363.841 194.824 363.841 196.792C363.841 202.552 363.793 211.672 362.401 215.752C361.105 219.88 358.513 224.296 354.241 227.272ZM424.369 204.664C420.961 204.664 418.225 207.4 418.225 210.76C418.225 214.168 420.961 216.904 424.369 216.904C427.729 216.904 430.465 214.168 430.465 210.76C430.465 207.4 427.729 204.664 424.369 204.664ZM473.905 190.504H466.801C466.993 191.656 467.185 193.864 467.185 194.92C467.137 207.592 464.929 215.752 458.641 221.992C456.721 223.96 454.321 225.544 452.305 226.648L457.921 231.16C468.529 223.624 473.041 213.88 473.569 194.824C473.617 193.672 473.761 191.656 473.905 190.504ZM490.177 200.824L486.049 198.76C484.897 199 483.649 199.096 482.401 199.096H460.177C458.353 199.096 455.905 199 453.889 198.76V205.096C455.905 204.904 458.593 204.856 460.225 204.856H483.649C483.649 210.04 482.977 219.64 481.585 222.664C481.105 223.864 480.433 224.392 478.897 224.392C476.977 224.392 474.529 224.104 472.129 223.72L472.897 230.104C475.249 230.296 478.081 230.536 480.865 230.536C484.129 230.536 486.001 229.24 487.009 226.84C489.073 221.944 489.697 208.552 489.889 203.32C489.889 202.792 490.033 201.592 490.177 200.824ZM500.737 206.776V214.36C502.561 214.216 505.777 214.072 508.465 214.072C514.129 214.072 529.921 214.072 534.289 214.072C536.305 214.072 538.753 214.312 539.905 214.36V206.776C538.609 206.872 536.497 207.112 534.241 207.112C529.969 207.112 514.129 207.112 508.465 207.112C505.969 207.112 502.513 206.92 500.737 206.776ZM550.945 194.872V201.208H585.793V194.872H550.945ZM546.961 222.712V229.336H589.825V222.712H546.961ZM632.353 196.504L628.465 193.576C627.457 193.912 625.585 194.152 623.473 194.152C621.361 194.152 609.073 194.152 606.529 194.152C605.137 194.152 602.161 194.008 600.865 193.816V200.68C601.921 200.584 604.561 200.344 606.529 200.344C608.593 200.344 620.833 200.344 622.849 200.344C621.745 203.752 618.817 208.504 615.649 212.104C611.137 217.096 603.745 222.952 595.969 225.832L600.961 231.016C608.401 227.512 615.649 221.56 621.025 215.368C625.153 210.568 628.705 204.04 630.673 199.48C631.105 198.472 631.969 197.032 632.353 196.504ZM621.649 211.384L617.137 215.848C622.273 220.504 627.505 226.216 631.057 231.16L636.529 226.408C633.409 222.568 626.593 215.416 621.649 211.384Z" fill="white"/>
<path d="M129.406 0L104.188 102.84C87.3128 107.799 70.7859 114.29 54.8232 122.312L129.406 0Z" fill="white"/>
<path d="M78.3815 157.382C82.9415 155.391 87.5439 153.531 92.183 151.8C104.549 147.188 117.177 143.5 129.961 140.735C131.649 140.37 133.34 140.021 135.034 139.689C171.691 132.485 209.516 132.834 246.06 140.735C259.017 143.537 271.814 147.288 284.34 151.989C293.076 155.267 301.681 159.007 310.117 163.208L329.494 141.739C312.491 131.967 294.703 124.101 276.437 118.141L276.472 118.282C219.391 99.5541 157.608 99.4532 100.476 117.979C86.4963 122.512 72.7947 128.161 59.5087 134.925L78.3815 157.382Z" fill="white"/>
<path d="M300.918 173.401L246.972 233.172L279.319 164.385L279.656 164.511L279.716 164.385C286.883 167.063 293.958 170.069 300.918 173.401Z" fill="white"/>
<path fill-rule="evenodd" clip-rule="evenodd" d="M188.01 236.616C224.187 236.616 253.514 207.289 253.514 171.112C253.514 165.834 252.89 160.701 251.711 155.784C209.93 145.277 166.09 145.277 124.31 155.784C123.131 160.701 122.506 165.834 122.506 171.112C122.506 207.289 151.833 236.616 188.01 236.616ZM208.062 171.112C208.062 182.187 199.085 191.164 188.01 191.164C176.936 191.164 167.958 182.187 167.958 171.112C167.958 160.038 176.936 151.06 188.01 151.06C199.085 151.06 208.062 160.038 208.062 171.112Z" fill="white"/>
<path d="M321.857 122.644C305.845 114.548 289.262 107.995 272.324 102.985L247.072 0.000122182L247.735 1.08843L247.468 0L322.253 122.644L322.019 122.526L321.68 122.355L321.857 122.644Z" fill="white"/>
<path d="M35.8418 138.711L0 192.378L12.0312 206.414L72.0087 179.469L76.8563 170.2L45.6213 135L35.8418 138.711Z" fill="white"/>
<path d="M190.141 62L207 95H174L190.141 62Z" fill="white"/>
<path d="M243.944 66.9736L254.435 102.515L222 96.4352L243.944 66.9736Z" fill="white"/>
<path d="M136.57 66.9736L126.079 102.515L158.514 96.4352L136.57 66.9736Z" fill="white"/>
</svg>
